<mxfile host="Electron" agent="Mozilla/5.0 (Windows NT 10.0; Win64; x64) AppleWebKit/537.36 (KHTML, like Gecko) draw.io/28.2.8 Chrome/140.0.7339.240 Electron/38.4.0 Safari/537.36" version="28.2.8">
  <diagram name="Page-1" id="cckhRAU9klDnyzQ11kri">
    <mxGraphModel dx="576" dy="841" grid="1" gridSize="10" guides="1" tooltips="1" connect="1" arrows="1" fold="1" page="1" pageScale="1" pageWidth="850" pageHeight="1100" math="0" shadow="0">
      <root>
        <mxCell id="0" />
        <mxCell id="1" parent="0" />
        <mxCell id="Mayd09K4v3OKnPgqIkE1-7" value="" style="group" vertex="1" connectable="0" parent="1">
          <mxGeometry x="1270" y="400" width="640" height="551.56" as="geometry" />
        </mxCell>
        <mxCell id="Mayd09K4v3OKnPgqIkE1-21" value="" style="group" vertex="1" connectable="0" parent="Mayd09K4v3OKnPgqIkE1-7">
          <mxGeometry y="-18.444593070104755" width="640" height="570.0045930701046" as="geometry" />
        </mxCell>
        <mxCell id="Mayd09K4v3OKnPgqIkE1-101" value="Auth Managment" style="whiteSpace=wrap;strokeWidth=2;verticalAlign=top;align=left;" vertex="1" parent="1">
          <mxGeometry x="1400" y="951.56" width="257" height="410" as="geometry" />
        </mxCell>
        <mxCell id="Mayd09K4v3OKnPgqIkE1-102" value="JWT Service" style="whiteSpace=wrap;strokeWidth=2;" vertex="1" parent="1">
          <mxGeometry x="1454" y="1020" width="147" height="54" as="geometry" />
        </mxCell>
        <mxCell id="Mayd09K4v3OKnPgqIkE1-103" value="Auth Service" style="whiteSpace=wrap;strokeWidth=2;" vertex="1" parent="1">
          <mxGeometry x="1454" y="1153.56" width="150" height="54" as="geometry" />
        </mxCell>
        <mxCell id="Mayd09K4v3OKnPgqIkE1-104" value="User Management" style="whiteSpace=wrap;strokeWidth=2;" vertex="1" parent="1">
          <mxGeometry x="1435" y="1282.56" width="187" height="54" as="geometry" />
        </mxCell>
        <mxCell id="Mayd09K4v3OKnPgqIkE1-105" value="" style="curved=1;startArrow=none;endArrow=block;exitX=0.5;exitY=1;entryX=0.5;entryY=0;rounded=0;" edge="1" parent="1" source="Mayd09K4v3OKnPgqIkE1-102" target="Mayd09K4v3OKnPgqIkE1-103">
          <mxGeometry relative="1" as="geometry">
            <Array as="points" />
          </mxGeometry>
        </mxCell>
        <mxCell id="Mayd09K4v3OKnPgqIkE1-106" value="" style="curved=1;startArrow=none;endArrow=block;exitX=0.5;exitY=1;entryX=0.5;entryY=0;rounded=0;" edge="1" parent="1" source="Mayd09K4v3OKnPgqIkE1-103" target="Mayd09K4v3OKnPgqIkE1-104">
          <mxGeometry relative="1" as="geometry">
            <Array as="points" />
          </mxGeometry>
        </mxCell>
        <mxCell id="Mayd09K4v3OKnPgqIkE1-107" value="" style="shape=module;align=left;spacingLeft=20;align=center;verticalAlign=top;whiteSpace=wrap;html=1;movable=1;resizable=1;rotatable=1;deletable=1;editable=1;locked=0;connectable=1;" vertex="1" parent="1">
          <mxGeometry x="1620" y="960" width="30" height="50" as="geometry" />
        </mxCell>
      </root>
    </mxGraphModel>
  </diagram>
</mxfile>
